<?xml version="1.0" encoding="utf-8"?>
<!-- Generator: Adobe Illustrator 18.1.1, SVG Export Plug-In . SVG Version: 6.00 Build 0)  -->
<svg version="1.1" id="Layer_1" xmlns="http://www.w3.org/2000/svg" xmlns:xlink="http://www.w3.org/1999/xlink" x="0px" y="0px"
	 viewBox="0 0 479 166" enable-background="new 0 0 479 166" xml:space="preserve">
<g>
	<g>
		<g>
			<path fill="#3B56A6" d="M22.2,154v-11.9h2.3l5.8,7l5.8-7h2.3V154h-2.7v-8.2l-5.3,6.7h-0.6l-5.4-6.5v8H22.2z"/>
			<path fill="#3B56A6" d="M42,154l7-11.9h2.8L59,154h-3.3l-1.5-2.6h-7.9l-1.5,2.6H42z M47.6,149.2H53l-2.8-4.9L47.6,149.2z"/>
			<path fill="#3B56A6" d="M61.9,154v-11.9h10.7c1.9,0,2.8,0.8,2.8,2.3v2.8c0,1.5-0.9,2.3-2.8,2.3H71l5.6,4.5h-4.2l-5-4.5h-2.7v4.5
				H61.9z M71.4,144.2h-6.6v3.3h6.6c0.9,0,1.3-0.3,1.3-1v-1.4C72.7,144.5,72.3,144.2,71.4,144.2z"/>
			<path fill="#3B56A6" d="M80.2,154v-11.9h2.9V154H80.2z"/>
			<path fill="#3B56A6" d="M88.3,154v-11.9h2l10.1,7.9v-7.9h2.6V154h-2L91,146v8H88.3z"/>
			<path fill="#3B56A6" d="M108.3,154v-11.9h12.8v2.1h-9.8v2.6h5.7v2.1h-5.7v2.9h10v2.2H108.3z"/>
			<path fill="#3B56A6" d="M143.4,144.3v9.7h-2.9v-9.7h-5.7v-2.1h14.4v2.1H143.4z"/>
			<path fill="#3B56A6" d="M152.6,144.9c0-1.1,0.2-1.9,0.6-2.2c0.4-0.4,1.2-0.6,2.4-0.6h9.2c1.2,0,2,0.2,2.4,0.6
				c0.4,0.4,0.6,1.1,0.6,2.2v6.3c0,1.1-0.2,1.8-0.7,2.2c-0.4,0.4-1.3,0.6-2.4,0.6h-9.2c-1.2,0-2-0.2-2.4-0.6
				c-0.4-0.4-0.6-1.1-0.6-2.2V144.9z M155.5,151.7h9.5v-7.4h-9.5V151.7z"/>
			<path fill="#3B56A6" d="M175.9,142.1v9.7h8.2v-9.7h2.9v9.1c0,1.1-0.2,1.8-0.7,2.2c-0.4,0.4-1.3,0.6-2.5,0.6H176
				c-1.2,0-2-0.2-2.4-0.6c-0.4-0.4-0.6-1.1-0.6-2.2v-9.1H175.9z"/>
			<path fill="#3B56A6" d="M192.3,154v-11.9H203c1.9,0,2.8,0.8,2.8,2.3v2.8c0,1.5-0.9,2.3-2.8,2.3h-1.6l5.6,4.5h-4.2l-5-4.5h-2.7
				v4.5H192.3z M201.8,144.2h-6.6v3.3h6.6c0.9,0,1.3-0.3,1.3-1v-1.4C203.1,144.5,202.6,144.2,201.8,144.2z"/>
			<path fill="#3B56A6" d="M210.6,154v-11.9h2.9V154H210.6z"/>
			<path fill="#3B56A6" d="M229.7,144.3h-8.2v2.5h7.7c1.2,0,2,0.2,2.4,0.6c0.4,0.4,0.6,1.1,0.6,2.2v1.6c0,1.1-0.2,1.8-0.6,2.2
				c-0.4,0.4-1.2,0.6-2.4,0.6h-7.7c-1.2,0-2-0.2-2.5-0.6c-0.4-0.4-0.7-1.1-0.7-2.2v-0.3l2.6-0.5v1.4h8.7v-2.7H222
				c-1.2,0-2-0.2-2.4-0.6c-0.5-0.4-0.7-1.1-0.7-2.2v-1.3c0-1.1,0.2-1.8,0.7-2.2c0.5-0.4,1.3-0.6,2.4-0.6h7c1.1,0,1.9,0.2,2.4,0.5
				c0.5,0.4,0.7,1,0.7,2v0.3l-2.5,0.5V144.3z"/>
			<path fill="#3B56A6" d="M237.3,154v-11.9h2.3l5.8,7l5.8-7h2.3V154h-2.7v-8.2l-5.3,6.7H245l-5.4-6.5v8H237.3z"/>
			<path fill="#3B56A6" d="M269.8,154v-11.9h2.3l5.8,7l5.8-7h2.3V154h-2.7v-8.2l-5.3,6.7h-0.6l-5.4-6.5v8H269.8z"/>
			<path fill="#3B56A6" d="M289.5,154l7-11.9h2.8l7.2,11.9h-3.3l-1.5-2.6h-7.9l-1.5,2.6H289.5z M295.1,149.2h5.4l-2.8-4.9
				L295.1,149.2z"/>
			<path fill="#3B56A6" d="M309.4,154v-11.9h2l10.1,7.9v-7.9h2.6V154h-2l-10.1-8v8H309.4z"/>
			<path fill="#3B56A6" d="M327.6,154l7-11.9h2.8l7.2,11.9h-3.3l-1.5-2.6H332l-1.5,2.6H327.6z M333.3,149.2h5.4l-2.8-4.9
				L333.3,149.2z"/>
			<path fill="#3B56A6" d="M359.2,144.3h-9v7.4h9v-2.5h-4.7v-2.1h7.6v4.1c0,1.1-0.2,1.8-0.6,2.2c-0.4,0.4-1.2,0.6-2.4,0.6h-8.6
				c-1.2,0-2-0.2-2.4-0.6c-0.4-0.4-0.6-1.1-0.6-2.2v-6.3c0-1.1,0.2-1.8,0.7-2.2c0.4-0.4,1.2-0.6,2.4-0.6h8.6c1.2,0,2,0.2,2.4,0.5
				c0.4,0.4,0.7,1.1,0.7,2.1v0.3l-2.8,0.5V144.3z"/>
			<path fill="#3B56A6" d="M367,154v-11.9h12.8v2.1h-9.8v2.6h5.7v2.1h-5.7v2.9h10v2.2H367z"/>
			<path fill="#3B56A6" d="M384.1,154v-11.9h2.3l5.8,7l5.8-7h2.3V154h-2.7v-8.2l-5.3,6.7h-0.6l-5.4-6.5v8H384.1z"/>
			<path fill="#3B56A6" d="M405.6,154v-11.9h12.8v2.1h-9.8v2.6h5.7v2.1h-5.7v2.9h10v2.2H405.6z"/>
			<path fill="#3B56A6" d="M422.7,154v-11.9h2l10.1,7.9v-7.9h2.6V154h-2l-10.1-8v8H422.7z"/>
			<path fill="#3B56A6" d="M449.8,144.3v9.7h-2.9v-9.7h-5.7v-2.1h14.4v2.1H449.8z"/>
		</g>
	</g>
	<g>
		<linearGradient id="SVGID_1_" gradientUnits="userSpaceOnUse" x1="5.6289" y1="62.7166" x2="468.867" y2="62.7166">
			<stop  offset="0" style="stop-color:#2B3990"/>
			<stop  offset="0.9725" style="stop-color:#00B0D8"/>
			<stop  offset="1" style="stop-color:#00B0D8"/>
		</linearGradient>
		<path fill="url(#SVGID_1_)" d="M445.9,69.1c-7.9-9.8-16.3-6-27,9.8c-22.3,32.5-20,16.5-20,15.4c0-3,4.1-12.2,12.2-27.7
			c5.8-11.1,8.7-18.1,8.7-21c0-1.1-0.2-2-0.7-2.8c-3.1-4.2-6.3-6.3-9.6-6.3c-2.1,0-4.5,0.9-7.4,2.6c-2.8,1.7-5.7,3.4-8.5,5.2
			c-10.1,7.9-18.1,14.5-24.2,19.9c5-9.3,7.6-15.6,7.6-18.6c0-1.1-0.2-2-0.7-2.8c-3.1-4.2-6.3-6.3-9.6-6.3c-2.1,0-4.5,0.9-7.4,2.6
			c-2.8,1.7-5.7,3.4-8.5,5.2c-4.1,2.5-10.5,7.7-19.2,15.7c-3.7,3.3-7.7,7.1-12,11.3c3.9-5.8,6.2-9.8,6.8-12c1.1-3.8,1.1-8.1,0-12.9
			c-0.5-2.2-1.9-4.5-4.1-6.8c-2.3-2.3-4.5-3.7-6.7-4.2c-3.3-0.7-9.4,5.9-18.4,19.9c-10.8,16.7-34.1,36.2-38.7,39.8
			c-1,1-2.4,1.8-4.2,2.3c-1.8,0.6-3.1,0.6-3.7,0.3c-2-1.1-2.2-3.8-0.6-7.9c0.5-1.4,16.4-31.9,19.9-38c-1.4,3-23.7-4.1-23.2-4.9
			l28.3,0.8h9.5c2.7,0,4.5-0.4,5.3-1.1l3.3-4.8c0.6-1,0.9-1.8,0.9-2.4c0-2.1-5.2-3.1-15.5-3.1c1.4-2.7,2-4,2-3.9
			c1.7-3.7,2.6-7,2.6-10c0-2.7-0.9-5.3-2.6-7.7c-1.5-1.8-3-3.7-4.6-5.5c-2-2.2-6.1-5-6.1-5s-2.1,2.8-3.5,5
			c-8.2,13.6-12.8,21.2-13.7,22.7c-0.5,0.6-1.1,1.4-1.9,2.3c-0.4,0.5,7.4,1.6,6.9,2.3c-0.5,0-9.3-0.5-9.8-0.5
			c-7.3,0.1-11.5,1.3-12.8,3.5c-0.6,1.2-1.5,2.4-1.9,3.3c-2.5,6.3,8.4,4.6,8.4,4.6c-18.4,20-48.8,48.7-51,48.7
			c-0.9,0-1.3-0.6-1.3-1.7c0-3,4.1-12.2,12.2-27.7c5.8-11.1,8.7-18.1,8.7-21c0-1.1-0.2-2-0.7-2.8c-3.1-4.2-6.3-6.3-9.6-6.3
			c-2.1,0-4.6,0.9-7.4,2.6c-2.8,1.7-5.7,3.4-8.5,5.2c-10.1,7.9-18.1,14.5-24.2,19.9c5-9.3,7.6-15.6,7.6-18.6c0-1.1-0.2-2-0.7-2.8
			c-3.1-4.2-6.3-6.3-9.6-6.3c-2.1,0-4.5,0.9-7.4,2.6c-2.8,1.7-5.7,3.4-8.5,5.2c-4.1,2.5-10.5,7.7-19.2,15.7
			c-3.7,3.3-7.7,7.1-12,11.3c3.9-5.8,6.2-9.8,6.8-12c1.1-3.8,1.1-8.1,0-12.9c-0.5-2.2-1.9-4.5-4.1-6.8c-2.3-2.3-4.5-3.7-6.7-4.2
			c-3.3-0.7-8.6,6.5-18.4,19.9C72.8,75.4,65.8,86.3,43.4,85.4c-35,5.8-5.7,35.3,11.2,19.5c0,0,18.6-13,35.3-39.4
			c-4.7,16.1-24.5,47-24.5,49.1c0,4.6,2.2,6.8,6.6,6.8c3.3,0,7.2-1.6,11.6-4.7c4.4-3.1,8.1-6.8,11.1-11c2.9-4.2,8.3-10.8,16-19.7
			c6.8-7.9,11.3-13,13.6-15.3c2.8-2.8,5.1-4.2,6.8-4.2c0.7,0,1.1,0.4,1.1,1.3c0,0.6-0.2,1.4-0.6,2.4c-5.7,10.3-10.9,19.8-15.9,28.4
			c-0.2,0.5-1.8,3.2-4.8,8.1c-2,3.2-3,5.8-3,7.9c0,4.6,2.2,6.8,6.6,6.8c3.3,0,7.2-1.6,11.6-4.7c4.4-3.1,8.1-6.8,11.1-11
			c3-4.2,8.3-10.8,16-19.7c6.8-7.9,11.3-13,13.6-15.3c2.8-2.8,5.2-4.2,7-4.2c0.7,0,1.1,0.4,1.1,1.1c0,0.6-0.2,1.5-0.7,2.6
			c-3.3,6.4-6.6,12.8-10,19.2c-5.3,11.1-7.6,18.6-7,22.7c0.9,5.5,4.9,8.3,12,8.3c3.3,0,6.5-0.6,9.6-1.9c3.1-1.3,8.7-5.5,17-12.6
			c7.5-6.4,31.9-32.8,36.7-38.9c-10.2,17.5-15.9,30.4-17,38.9c-0.5,3.4,0.6,6.7,3.3,9.8c3,3.6,6.8,5.4,11.6,5.4
			c5.9,0,14.8-4.2,26.7-12.7c10.2-7.4,25.5-23.6,25.9-24.7c5.9-6.5,11.3-12.5,16-17.9c-9,17.5-14.6,28.5-16.8,33
			c-0.1,0.4-1.7,3.1-4.8,8.1c-2,3.2-2.9,5.8-2.9,7.9c0,4.6,2.2,6.8,6.6,6.8c3.3,0,7.2-1.6,11.6-4.7c4.4-3.1,8.1-6.8,11.1-11
			c3-4.2,8.3-10.8,16-19.7c6.8-7.9,11.3-13,13.6-15.3c2.8-2.8,5.1-4.2,6.8-4.2c0.7,0,1.1,0.4,1.1,1.3c0,0.6-0.2,1.4-0.6,2.4
			c-5.7,10.3-10.9,19.8-15.9,28.4c-0.2,0.5-1.8,3.2-4.8,8.1c-2,3.2-3,5.8-3,7.9c0,4.6,2.2,6.8,6.6,6.8c3.3,0,7.2-1.6,11.6-4.7
			c4.4-3.1,8.1-6.8,11.1-11c3-4.2,8.3-10.8,16-19.7c6.8-7.9,11.3-13,13.6-15.3c2.8-2.8,5.2-4.2,7-4.2c0.7,0,1.1,0.4,1.1,1.1
			c0,0.6-0.2,1.5-0.7,2.6c-3.3,6.4-6.6,12.8-10,19.2c-5.3,11.1-7.6,18.6-7,22.7c0.9,5.5,4.9,8.3,12,8.3c3.3,0,7.1,0.3,9.6-1.9
			c27.4-24.2,37.6-33.9,50.3-34.2C446.9,80.7,450.1,77.9,445.9,69.1z M26.1,78.2c-4.4-0.3-1.1-4.6-8.7-8.5
			C10.1,67.6,5.4,77,5.6,81.4c0.3,4.4,7,6.2,10.4,5.9c3.4-0.4,16.7-5.7,16.7-5.7S30.5,78.5,26.1,78.2z M459,82.2
			c-8.1,2.7-5.6,7.5-9.9,7c-4.4-0.4-7.1,2.2-7.1,2.2s12.3,7.5,15.6,8.4c3.3,0.9,10.2,0.2,11.2-4.1C469.7,91.4,466.5,81.4,459,82.2z"
			/>
		<circle fill="#FFFFFF" cx="203.1" cy="44.7" r="2.6"/>
		<circle fill="#FFFFFF" cx="161" cy="44.7" r="2.6"/>
		<circle fill="#FFFFFF" cx="111.5" cy="44.7" r="2.6"/>
		<circle fill="#FFFFFF" cx="413.2" cy="44.7" r="2.6"/>
		<circle fill="#FFFFFF" cx="371" cy="44.7" r="2.6"/>
		<circle fill="#FFFFFF" cx="320.2" cy="44.7" r="2.6"/>
		<circle fill="#FFFFFF" cx="17.3" cy="76.3" r="2.6"/>
		<circle fill="#FFFFFF" cx="462.7" cy="88.7" r="2.6"/>
	</g>
</g>
</svg>
